<svg xmlns="http://www.w3.org/2000/svg" viewBox="0 0 325.18 35.5"><defs><style>.cls-1{fill:#fff;}</style></defs><title>Asset 1</title><g id="Layer_2" data-name="Layer 2"><g id="Layer_1-2" data-name="Layer 1"><path class="cls-1" d="M15.94,9.37a8.34,8.34,0,0,1-.68,3.52,6.28,6.28,0,0,1-1.86,2.38,7.69,7.69,0,0,1-2.82,1.34A13.76,13.76,0,0,1,7,17H4.65V27.19H0V2.59H7.53a16.63,16.63,0,0,1,3.32.32A7.47,7.47,0,0,1,13.53,4,5.23,5.23,0,0,1,15.3,6.07,7.5,7.5,0,0,1,15.94,9.37Zm-5,.46A3.1,3.1,0,0,0,9.85,7.24a4.36,4.36,0,0,0-2.79-.85H4.65v7H6.43a8,8,0,0,0,1.73-.18,4.23,4.23,0,0,0,1.44-.58,2.89,2.89,0,0,0,1-1.1A3.76,3.76,0,0,0,10.93,9.83ZM31.56,27.19,31.28,25l-1.21,1.7a7.24,7.24,0,0,1-2,.69,11.67,11.67,0,0,1-2.17.2,5.73,5.73,0,0,1-4.52-1.67,6.85,6.85,0,0,1-1.47-4.69V8.88h4.33V20.2a10.1,10.1,0,0,0,.12,1.6,3.54,3.54,0,0,0,.46,1.28,2.57,2.57,0,0,0,1,.85,3.47,3.47,0,0,0,1.58.32,4.13,4.13,0,0,0,1.94-.39,2.79,2.79,0,0,0,1.11-1.07,4.64,4.64,0,0,0,.54-1.6,13.35,13.35,0,0,0,.14-2V8.88h4.33V23.43c0,.62,0,1.24,0,1.88s.08,1.27.13,1.88Zm16.54.39a21.74,21.74,0,0,1-3.32-.26,9.7,9.7,0,0,1-3.14-1.09V.25H46V11.57l2-2.48a7.72,7.72,0,0,1,3-.57,7.33,7.33,0,0,1,3.19.66A6.5,6.5,0,0,1,56.5,11a7.7,7.7,0,0,1,1.4,2.66,10.88,10.88,0,0,1,.46,3.21,13.53,13.53,0,0,1-.67,4.39,9.41,9.41,0,0,1-2,3.39,8.83,8.83,0,0,1-3.23,2.18A11.71,11.71,0,0,1,48.1,27.58Zm1.46-15.4a3.15,3.15,0,0,0-1.88.51A3.3,3.3,0,0,0,46.59,14a6.18,6.18,0,0,0-.49,1.8A14.15,14.15,0,0,0,46,17.71v6.22a6.41,6.41,0,0,0,2.45.49,5.15,5.15,0,0,0,2.36-.49A4.79,4.79,0,0,0,52.4,22.6a5.66,5.66,0,0,0,.94-2,9,9,0,0,0,.3-2.36,14,14,0,0,0-.16-2.11,6.76,6.76,0,0,0-.6-2,3.92,3.92,0,0,0-1.25-1.46A3.54,3.54,0,0,0,49.56,12.18Zm13.35,15V.25h4.33V27.19Zm10.58,0V8.88h4.33V27.19Zm4.82-24.6a2.49,2.49,0,0,1-.67,1.87,2.72,2.72,0,0,1-2,.65,2.64,2.64,0,0,1-2-.71A2.55,2.55,0,0,1,73,2.52,2.45,2.45,0,0,1,73.73.69,2.59,2.59,0,0,1,75.61,0a2.78,2.78,0,0,1,2,.69,2.52,2.52,0,0,1,.72,1.9ZM96.74,26A11.82,11.82,0,0,1,94,27.21a11.58,11.58,0,0,1-3.07.37,9.55,9.55,0,0,1-3.71-.67A7.66,7.66,0,0,1,84.45,25a8,8,0,0,1-1.66-2.9,11.5,11.5,0,0,1-.57-3.71,12.75,12.75,0,0,1,.6-4,8.85,8.85,0,0,1,1.78-3.13,7.77,7.77,0,0,1,2.91-2,10.71,10.71,0,0,1,4-.71,12.61,12.61,0,0,1,2.4.21,6.72,6.72,0,0,1,2.22.93l-.85,3.44a6.56,6.56,0,0,0-1.6-.69A6.26,6.26,0,0,0,92,12.18a5.21,5.21,0,0,0-2.28.44,4.12,4.12,0,0,0-1.51,1.22,5.24,5.24,0,0,0-.85,1.85A9.23,9.23,0,0,0,87.05,18a9.12,9.12,0,0,0,.28,2.35,5.05,5.05,0,0,0,.91,1.86,4.09,4.09,0,0,0,1.59,1.24,5.61,5.61,0,0,0,2.36.45,8.16,8.16,0,0,0,2-.25A8.83,8.83,0,0,0,96,22.9L96.74,26ZM127.66,9.37a8.34,8.34,0,0,1-.68,3.52,6.38,6.38,0,0,1-1.86,2.38,7.69,7.69,0,0,1-2.82,1.34,13.76,13.76,0,0,1-3.55.43h-2.38V27.19h-4.65V2.59h7.52a16.55,16.55,0,0,1,3.32.32A7.33,7.33,0,0,1,125.24,4,5.18,5.18,0,0,1,127,6.07,7.64,7.64,0,0,1,127.66,9.37Zm-5,.46a3.1,3.1,0,0,0-1.08-2.59,4.36,4.36,0,0,0-2.79-.85h-2.41v7h1.77a8,8,0,0,0,1.74-.18,4.23,4.23,0,0,0,1.44-.58,2.89,2.89,0,0,0,1-1.1A3.89,3.89,0,0,0,122.65,9.83Zm16.23,17.75a9.61,9.61,0,0,1-3.7-.67A8,8,0,0,1,132.4,25a8.26,8.26,0,0,1-1.76-2.91,11,11,0,0,1-.6-3.71,12.63,12.63,0,0,1,.6-4,8.78,8.78,0,0,1,1.77-3.12,7.94,7.94,0,0,1,2.9-2,10,10,0,0,1,4-.73,9.59,9.59,0,0,1,3.69.67,8,8,0,0,1,2.79,1.9A8.34,8.34,0,0,1,147.5,14a10.82,10.82,0,0,1,.61,3.69,12.52,12.52,0,0,1-.61,4,8.83,8.83,0,0,1-1.77,3.13,8.27,8.27,0,0,1-2.9,2.06A9.94,9.94,0,0,1,138.88,27.58Zm.14-3.33a3.91,3.91,0,0,0,2.18-.57,4.16,4.16,0,0,0,1.37-1.46,6.31,6.31,0,0,0,.69-2,13,13,0,0,0,.2-2.22,12.16,12.16,0,0,0-.2-2.13,6.25,6.25,0,0,0-.69-2,4.21,4.21,0,0,0-1.33-1.45,3.68,3.68,0,0,0-2.12-.57,3.75,3.75,0,0,0-3.51,2,6.31,6.31,0,0,0-.69,2,13,13,0,0,0-.2,2.22,12.12,12.12,0,0,0,.2,2.15,6.61,6.61,0,0,0,.69,2,4.32,4.32,0,0,0,1.31,1.47,3.61,3.61,0,0,0,2.1.57Zm13.56,2.94V.25h4.33V27.19Zm10.58,0V8.88h4.33V27.19ZM168,2.59a2.49,2.49,0,0,1-.68,1.87,2.72,2.72,0,0,1-1.95.65,2.6,2.6,0,0,1-2-.71,2.51,2.51,0,0,1-.71-1.88,2.41,2.41,0,0,1,.71-1.83A2.58,2.58,0,0,1,165.29,0a2.75,2.75,0,0,1,2,.69,2.52,2.52,0,0,1,.73,1.9ZM186.41,26a11.82,11.82,0,0,1-2.79,1.19,11.58,11.58,0,0,1-3.07.37,9.59,9.59,0,0,1-3.71-.67A7.62,7.62,0,0,1,174.13,25a8,8,0,0,1-1.67-2.9,11.5,11.5,0,0,1-.57-3.71,12.75,12.75,0,0,1,.6-4,9,9,0,0,1,1.78-3.13,7.77,7.77,0,0,1,2.91-2,10.73,10.73,0,0,1,4-.71,12.58,12.58,0,0,1,2.39.21,6.55,6.55,0,0,1,2.22.93L185,13.1a6.4,6.4,0,0,0-1.6-.69,6.22,6.22,0,0,0-1.77-.23,5.13,5.13,0,0,0-2.27.44,4,4,0,0,0-1.51,1.22,5.07,5.07,0,0,0-.85,1.85,9.23,9.23,0,0,0-.27,2.27,9.12,9.12,0,0,0,.28,2.35,5.05,5.05,0,0,0,.91,1.86,4,4,0,0,0,1.6,1.24,5.58,5.58,0,0,0,2.36.45,8.08,8.08,0,0,0,2-.25,8.83,8.83,0,0,0,1.85-.71l.71,3.12Zm11.79,2.56c-.29.75-.61,1.52-1,2.29A10.88,10.88,0,0,1,196,33a8,8,0,0,1-1.74,1.65,5.2,5.2,0,0,1-2.31.87l-1.59-3.19a4.88,4.88,0,0,0,1.93-.84A5.84,5.84,0,0,0,193.67,30a9.63,9.63,0,0,0,1-1.92,19.68,19.68,0,0,0,.64-2L187.4,8.88h4.9l5.15,11.43,3.73-11.43h4.26ZM236.78,26a14.35,14.35,0,0,1-3.7,1.31,19.55,19.55,0,0,1-3.93.39,12.69,12.69,0,0,1-5-.92,10.72,10.72,0,0,1-3.74-2.57,11.17,11.17,0,0,1-2.36-3.92,14.54,14.54,0,0,1-.82-5,15.49,15.49,0,0,1,.89-5.36,11.87,11.87,0,0,1,2.55-4.15,11.34,11.34,0,0,1,4.05-2.68,14.42,14.42,0,0,1,5.36-.94,19.71,19.71,0,0,1,3.25.27,8,8,0,0,1,3,1.15l-1.13,3.73a10,10,0,0,0-5-1.21,8,8,0,0,0-3.5.71,6.88,6.88,0,0,0-2.45,1.94,8.18,8.18,0,0,0-1.45,2.87,12.6,12.6,0,0,0-.48,3.53,10.88,10.88,0,0,0,.51,3.38,8.38,8.38,0,0,0,1.49,2.73,6.72,6.72,0,0,0,2.45,1.83,8.2,8.2,0,0,0,3.39.65,12.53,12.53,0,0,0,5.43-1.13l1.1,3.37Zm18.61-9c0,.26,0,.53,0,.81s0,.56-.05.82l-12,0a5.24,5.24,0,0,0,1.88,4.18,7,7,0,0,0,4.44,1.39,9.25,9.25,0,0,0,2.33-.3,13,13,0,0,0,2.22-.8l.53,3.05a9,9,0,0,1-3.18,1.23,18.93,18.93,0,0,1-3.43.33,10.71,10.71,0,0,1-3.9-.67,8.2,8.2,0,0,1-3-1.92,8.65,8.65,0,0,1-1.86-3,11.08,11.08,0,0,1-.66-3.92,13.31,13.31,0,0,1,.55-3.92,8.3,8.3,0,0,1,1.67-3,7.42,7.42,0,0,1,2.77-1.94,10.25,10.25,0,0,1,3.89-.67,9.74,9.74,0,0,1,3.57.59,5.94,5.94,0,0,1,2.39,1.66A6.71,6.71,0,0,1,255,13.4a13.36,13.36,0,0,1,.43,3.5Zm-4.58-1.24a10.25,10.25,0,0,0-.2-1.62,3.85,3.85,0,0,0-.53-1.35,2.76,2.76,0,0,0-1-.94,3.42,3.42,0,0,0-1.65-.35,3.78,3.78,0,0,0-1.69.35,3.61,3.61,0,0,0-1.2.94,4.31,4.31,0,0,0-.75,1.39,5.81,5.81,0,0,0-.3,1.68Zm20.66,11.53V16.83a10.6,10.6,0,0,0-.13-1.69,4.57,4.57,0,0,0-.47-1.49,2.73,2.73,0,0,0-1-1.05,3.15,3.15,0,0,0-1.67-.39,3.92,3.92,0,0,0-2.16.52,3.39,3.39,0,0,0-1.25,1.33,5.64,5.64,0,0,0-.55,1.9,19.77,19.77,0,0,0-.12,2.18v9.05h-4.33V8.88h3.76v3.37l1.71-2.59a8.56,8.56,0,0,1,2.14-.86,10.32,10.32,0,0,1,2.29-.24q3.35,0,4.71,1.77a7.93,7.93,0,0,1,1.36,4.94V27.19Zm19.77-1a7.5,7.5,0,0,1-2.45,1,12.28,12.28,0,0,1-2.62.28,7.43,7.43,0,0,1-1.76-.21,3.21,3.21,0,0,1-1.51-.85,2.94,2.94,0,0,1-.92-1.76,13.6,13.6,0,0,1-.15-2V12.28h-2.27V8.88h2.27l.36-5.22h4V8.88h4.29v3.4h-4.29v9c0,.36,0,.69,0,1a2.41,2.41,0,0,0,.21.85,1.36,1.36,0,0,0,.55.59,2.09,2.09,0,0,0,1,.21,7.3,7.3,0,0,0,2.8-.57l.46,2.84Zm19-9.33c0,.26,0,.53,0,.81s0,.56-.05.82l-12,0a5.24,5.24,0,0,0,1.89,4.18,6.94,6.94,0,0,0,4.43,1.39,9.25,9.25,0,0,0,2.33-.3A13,13,0,0,0,309,23l.53,3.05a9,9,0,0,1-3.18,1.23,18.82,18.82,0,0,1-3.42.33,10.73,10.73,0,0,1-3.91-.67A8.07,8.07,0,0,1,296.11,25a8.52,8.52,0,0,1-1.87-3,11.08,11.08,0,0,1-.65-3.92,13,13,0,0,1,.55-3.92,8.13,8.13,0,0,1,1.66-3,7.42,7.42,0,0,1,2.77-1.94,10.25,10.25,0,0,1,3.89-.67,9.66,9.66,0,0,1,3.57.59,5.94,5.94,0,0,1,2.39,1.66,6.71,6.71,0,0,1,1.35,2.63,13,13,0,0,1,.43,3.5Zm-4.58-1.24a9.2,9.2,0,0,0-.2-1.62,3.85,3.85,0,0,0-.53-1.35,2.76,2.76,0,0,0-1-.94,3.42,3.42,0,0,0-1.65-.35,3.71,3.71,0,0,0-1.68.35,3.55,3.55,0,0,0-1.21.94,4.31,4.31,0,0,0-.75,1.39,6.16,6.16,0,0,0-.3,1.68ZM324.79,13a4.55,4.55,0,0,0-2-.46,3.48,3.48,0,0,0-2.17.6,3.7,3.7,0,0,0-1.17,1.53,6.56,6.56,0,0,0-.48,2c-.06.76-.09,1.5-.09,2.21v8.3H314.6V8.87h3.76V12.6l1.85-3.09a6.16,6.16,0,0,1,3.19-.85,6.84,6.84,0,0,1,.91.07,3.77,3.77,0,0,1,.87.25Z"/></g></g></svg>